<?xml version="1.0" encoding="utf-8"?>
<!-- Generator: Adobe Illustrator 16.0.0, SVG Export Plug-In . SVG Version: 6.00 Build 0)  -->
<!DOCTYPE svg PUBLIC "-//W3C//DTD SVG 1.1//EN" "http://www.w3.org/Graphics/SVG/1.1/DTD/svg11.dtd">
<svg version="1.1" id="icon" xmlns="http://www.w3.org/2000/svg" xmlns:xlink="http://www.w3.org/1999/xlink" x="0px" y="0px"
	 width="800px" height="800px" viewBox="0 0 800 800" enable-background="new 0 0 800 800" xml:space="preserve">
<g>
	<path fill="none" d="M709.22,322.705l-0.026-0.053c0.031,0.007,0.063,0.015,0.096,0.019
		C709.268,322.685,709.24,322.691,709.22,322.705z"/>
	<path d="M699.896,307.275c-0.002-0.001-0.004-0.001-0.005-0.001c0.001-0.016,0.005-0.032,0.005-0.047V307.275z"/>
</g>
<g>
	<path d="M519.527,408.087c-4.098-0.209-15.352-0.087-23.055,4.889c-2.074,1.339-3.875,2.944-6.523,3.183
		c-1.117,0.101-8.489,0.216-8.598-8.598l42.359-313.062c0.885-16.978-12.162-31.472-29.146-32.357
		c-16.979-0.878-31.473,12.161-32.357,29.139c0,0-36.93,215.154-37.125,215.961c0,0-1.655,7.891-10.029,7.848
		c-5.73-0.029-10.361-4.644-10.361-10.368l-18.54-237.065c0-17.006-13.781-30.795-30.788-30.795
		c-17.014,0-30.81,13.789-30.81,30.795l16.589,234.696c-0.893-13.832-15.02-18.533-32.941-17.936
		c-10.857,0.36-28.995,5.53-32.991,25.33l-0.014,9.641c-3.615-12.406-17.267-17.871-32.725-15.963
		c-7.172,0.886-19.405,6.963-19.405,25.193v158.129c0,2.967-6.747,133.375,39.673,168.16v81.686c0,23.73,14.329,42.97,38.067,42.97
		c0,0,117.024-0.093,118.463-0.245c21.666-0.727,42.619-18.338,42.619-40.032v-79.792c22.082-5.537,81.182-118.312,84.205-147.805
		l3.938-81.002C550.926,413.688,536.512,408.979,519.527,408.087z"/>
</g>
</svg>
